<?xml version="1.0" encoding="utf-8"?>
<!-- Generator: Adobe Illustrator 26.3.1, SVG Export Plug-In . SVG Version: 6.00 Build 0)  -->
<svg version="1.1" id="Layer_1" xmlns="http://www.w3.org/2000/svg" xmlns:xlink="http://www.w3.org/1999/xlink" x="0px" y="0px"
	 viewBox="0 0 400 150" style="enable-background:new 0 0 400 150;" xml:space="preserve">
<g id="zdTW4Y.tif">
	<g>
		<path d="M20.3,42.5c0.5-0.5,1-1,1.6-1.4c2.3-1.4,4.7-2.7,7.1-4c0.3-0.2,0.6-0.3,1.1-0.5c0,8.2,0,16.2,0,24.6
			c0.5-0.3,0.9-0.5,1.1-0.7c2.4-1.9,4.9-3.7,7.2-5.7c0.5-0.4,0.9-1.3,0.9-1.9c0.1-6.4,0.2-12.9,0-19.3c-0.1-1.9,0.6-2.8,2.1-3.6
			c2.2-1.1,4.3-2.4,6.5-3.7c0.4-0.2,0.8-0.4,1.3-0.7c0,0.6,0.1,1.1,0.1,1.6c0.1,9.9,0.1,19.8,0.2,29.6c0,1.5-0.5,2.6-1.7,3.5
			c-3.2,2.4-6.4,5-9.7,7.6c0.4,0.4,0.8,0.7,1.1,1c2.9,2.3,5.9,4.7,8.8,7c1.1,0.8,1.5,1.8,1.5,3.2c-0.1,5.6,0,11.3-0.1,16.9
			c0,1-0.3,2.2-0.9,3c-2.7,3.8-5.6,7.5-8.4,11.2c-0.1,0.2-0.3,0.3-0.7,0.6c0-0.7,0-1.1,0-1.5c0-8.7,0-17.4,0-26.2
			c0-1.1-0.3-1.9-1.2-2.5c-2.3-1.8-4.6-3.6-6.9-5.4c-0.3-0.3-0.7-0.5-1.2-0.8c0,13.4,0,26.6,0,39.7c-0.2,0-0.3,0.1-0.3,0
			c-3-4.2-6.4-8.1-8-13.1c-0.7-2.1-1.1-4.2-1.6-6.4C20.3,77.2,20.3,59.9,20.3,42.5z"/>
		<path d="M66.6,122.1c0-2.5-0.1-5,0-7.5c0.1-2.2-0.6-4-2.1-5.6c-2.8-3.2-5.5-6.5-8.2-9.9c-0.6-0.7-1-1.9-1-2.8
			c0-19.6,0-39.1,0.1-58.7c0-3.6,0-7.3-0.1-10.9c0-0.3,0-0.6,0.1-1.1c0.5,0.2,0.9,0.3,1.2,0.5c8.9,5.1,17.8,10.1,26.6,15.2
			c0.9,0.5,1.4,1.2,1.4,2.3c0,15.8,0,31.5,0.1,47.3c0.1,5.4-1.4,10.3-4,15c-3.5,6.3-8.3,11.5-13.8,16.1C67,122,66.9,122,66.6,122.1z
			 M71.3,102.4c1.1-2.4,2.2-4.4,3.1-6.5c0.3-0.7,0.4-1.5,0.4-2.2c0-5.1,0-10.2,0-15.2c0-0.5-0.4-1.2-0.8-1.4c-2.4-1.4-4.9-2.7-7.3-4
			c-0.3-0.2-0.6-0.3-1-0.4c0,0.3-0.1,0.5-0.1,0.7c0,6.7,0,13.4,0,20.1c0,0.6,0.1,1.3,0.5,1.8C67.6,97.6,69.3,99.8,71.3,102.4z
			 M65.7,42.7c-0.1,0.2-0.2,0.3-0.2,0.4c0,5.6,0,11.1,0,16.7c0,0.5,0.5,1.3,1,1.6c2.4,1.4,4.9,2.8,7.3,4.1c0.3,0.1,0.6,0.2,0.9,0.4
			c0-4.7-0.2-9.3,0.1-13.9c0.2-3.2-0.7-5.1-3.7-6.3C69.3,44.9,67.6,43.7,65.7,42.7z"/>
		<path d="M136.2,53.4c3.1,0,6,0,9,0c0,17.6,0,35.2,0,52.9c-2.5,0-5.1-0.2-7.5,0.1c-2.8,0.3-4.3-0.8-5.7-3.1
			c-7.4-12.2-15.1-24.2-22.7-36.3c-0.2-0.4-0.5-0.7-1-1c0,13.4,0,26.8,0,40.3c-3.1,0-6,0-9,0c0-17.6,0-35.1,0-52.9
			c1.7,0,3.4,0,5.1,0c2.1,0,4.5-0.6,6.1,0.3c1.5,0.8,2.3,3.2,3.3,4.9c7.1,11.3,14.2,22.6,21.4,33.9c0.3,0.4,0.5,0.8,1.1,1.1
			C136.2,80.3,136.2,66.9,136.2,53.4z"/>
		<path d="M240.2,81.6c-1.5,5.6-2.9,10.8-4.3,16.1c-0.7,2.5-1.4,5-2,7.6c-0.2,0.8-0.6,1.1-1.4,1.1c-3-0.1-6.1,0-9.1,0
			c-0.7,0-1.2-0.1-1.4-0.9c-3.5-12.1-7-24.2-10.6-36.3c0-0.1,0-0.3-0.1-0.6c3,0,5.9,0,8.8,0.1c0.3,0,0.8,0.7,0.9,1.1
			c2.2,8.1,4.3,16.3,6.5,24.4c0.1,0.4,0.2,0.8,0.5,1.6c0.8-2.8,1.4-5.2,2.1-7.7c1.6-6,3.3-12.1,4.8-18.1c0.3-1,0.7-1.4,1.8-1.4
			c2.4,0.1,4.9,0.1,7.3,0c1,0,1.3,0.3,1.6,1.3c2.3,8.1,4.6,16.2,6.9,24.3c0.1,0.4,0.3,0.9,0.5,1.6c0.4-1.6,0.8-2.8,1.1-4.1
			c1.9-7.2,3.8-14.5,5.7-21.7c0.3-1,0.6-1.5,1.7-1.4c2.7,0.1,5.3,0,8.2,0c-0.4,1.5-0.8,2.8-1.2,4.1c-3.2,10.8-6.3,21.6-9.4,32.4
			c-0.3,1-0.7,1.3-1.7,1.3c-2.9-0.1-5.7-0.1-8.6,0c-1.1,0-1.6-0.3-1.9-1.4c-2-7.3-4.1-14.6-6.2-21.8
			C240.6,82.8,240.5,82.4,240.2,81.6z"/>
		<path d="M190.7,88.9c-11.2,0-22.1,0-32.9,0c-0.6,4.4,3.3,9.3,7.9,9.7c2.7,0.2,5.4,0.2,8.1,0c3.2-0.2,5.4-2.2,6.9-4.9
			c0.4-0.7,0.9-1,1.8-1c2.6,0.1,5.2,0,8,0c-0.8,3.3-2.2,6.1-4.4,8.5c-2.9,3-6.6,4.8-10.8,5c-4,0.2-8.1,0.4-12-0.2
			c-7.7-1-13.3-7.1-14.5-14.9c-0.9-6,0.1-11.7,4-16.5c3.2-3.9,7.4-6,12.4-6.1c3.6-0.1,7.2-0.3,10.8,0.2c7.4,0.9,12.9,6.6,14.2,14.2
			C190.5,84.8,190.5,86.8,190.7,88.9z M158.1,82.7c7.7,0,15.2,0,22.8,0c0-0.4,0-0.7-0.1-0.9c-0.9-3-3-4.8-5.9-5.3
			c-2.6-0.4-5.4-0.4-8.1-0.3c-2.5,0-4.6,1-6.5,2.6C159.2,79.8,158.3,81,158.1,82.7z"/>
		<path d="M383.6,68.5c-1,1.7-1.9,3.2-2.7,4.6c-2.6,4.4-5.2,8.8-7.9,13.2c-0.5,0.8-0.5,1.3,0,2.1c3.2,5.4,6.4,10.7,9.6,16.1
			c0.3,0.5,0.6,1,1,1.7c-1.5,0-2.9-0.2-4.2,0c-3.6,0.6-5.6-0.8-7.1-4c-1.7-3.5-3.9-6.8-6-10.1c-0.3-0.4-0.8-0.9-1.2-1
			c-4.8-0.1-9.5,0-14.4,0c0,5,0,10,0,15c-3.1,0-6.1,0-9.1,0c0-17.6,0-35.1,0-52.8c3,0,6,0,9,0c0,10,0,20,0,30c0.5,0,0.9,0.1,1.3,0.1
			c4.2,0,8.4,0,12.6,0c0.9,0,1.4-0.4,1.9-1.1c2.5-4.4,5.2-8.7,7.7-13c0.4-0.7,0.9-1,1.8-1C378.4,68.6,380.8,68.5,383.6,68.5z"/>
		<path d="M52.3,109.4c-0.7,0.8-1.2,1.5-1.8,2.1c-0.7,0.7-0.5,1.2,0.4,1.6c3.8,2.1,7.6,4.3,11.4,6.4c1.9,1,2.3,3.3,0.6,4.6
			c-3.2,2.6-6.6,4.9-9.9,7.4c-0.7,0.5-1.2,0.1-1.7-0.3c-5.3-3.6-10.1-7.8-14.9-12c-1.1-0.9-2.2-1.9-3.3-2.8c-0.3-0.3-0.7-0.7-0.7-1
			c-0.1-2.3,0-4.5,0-7c6.7,5.6,13.4,11.1,20.1,16.7c1.3-1,2.5-2.1,3.8-3.2c-0.5-0.3-0.9-0.5-1.2-0.7c-3.7-2.1-7.4-4.1-11.1-6.2
			c-1.6-0.9-1.6-1.1-0.5-2.5c2.6-3.3,5.3-6.6,7.9-9.9c0.9-1.2,1.3-1.2,2.2-0.1c3.2,3.8,6.5,7.6,9.7,11.4c0.2,0.3,0.4,0.6,0.5,0.9
			c-0.1,0.1-0.1,0.3-0.2,0.4c-2-0.5-4.2-0.8-6-1.7C55.7,112.5,54.1,110.9,52.3,109.4z"/>
		<path d="M194.2,76.1c-1.3,0-2.3,0-3.5,0c0-2.5,0-5,0-7.5c0.4,0,0.7-0.1,1-0.1c2.5-0.1,2.5-0.1,3.5-2.5c0.6-1.4,1.2-2.8,1.6-4.2
			c0.3-0.8,0.7-1,1.4-1c1.6,0.1,3.3,0,5,0c0,2.5,0,5,0,7.5c1.8,0,3.5,0,5.2,0c0,2.6,0,5,0,7.6c-1.7,0-3.3,0-5.1,0
			c-0.1,0.5-0.1,0.9-0.1,1.2c0,5.1,0,10.3,0,15.4c0,0.2,0,0.5,0,0.7c0.1,4.5,1,5.4,5.6,5.5c0,2.4,0,4.8,0,7.2
			c-6.8,2-14-2.9-14.4-10.2c-0.3-5.9-0.2-11.9-0.3-17.8C194.2,77.5,194.2,76.9,194.2,76.1z"/>
		<path d="M314.6,68.5c2.4,0,4.7,0,7,0c0.3,0,0.7,0.4,0.9,0.7c0.4,0.7,0.7,1.5,1.1,2.4c1.7-2.4,4.1-3.1,6.7-3.1c2.7,0,5.4,0,8.2,0
			c0,2.5,0,4.9,0,7.5c-0.5,0-0.9,0.1-1.4,0.1c-2.9,0-5.9,0-8.8,0c-2.6,0-3.6,0.8-4.3,3.3c-0.2,0.9-0.3,1.9-0.3,2.9
			c0,7.4,0,14.8,0,22.2c0,0.6,0,1.1,0,1.8c-3.1,0-6,0-9.1,0C314.6,93.7,314.6,81.2,314.6,68.5z"/>
		<path d="M270.1,87.4c0-10.6,8.5-19,19-18.9c10.5,0.1,18.8,8.5,18.8,19c-0.1,10.5-8.5,18.9-19,18.8
			C278.4,106.3,270,97.9,270.1,87.4z M282.2,97c0.4,0.4,1,0.9,1.4,1.5c1.9,2.6,4.1,2.8,7.1,1.5c5-2,5.2-1.9,6.4-7.3
			c0-0.1,0.1-0.3,0.1-0.4c-0.2-0.6-0.2-1.3-0.6-1.6c-1.3-1.3-2.7-2.4-4.1-3.6c-0.4-0.3-1-0.4-1.5-0.3c-2.2,0.6-4.3,1.3-6.4,2
			c-0.4,0.1-0.9,0.5-0.9,0.8C283.1,92,282.7,94.4,282.2,97z M292.3,82.2c-1,3.1,0.7,4.9,3,6.5c0.3,0.2,0.6,0.4,0.7,0.6
			c1.2,1.6,2.5,1.4,4.1,0.6c3.4-1.6,3.3-1.5,3.7-5.3c0.2-2.4-0.2-4.1-2.4-5.3c-1-0.6-1.9-1.5-2.9-2.2c-0.3-0.2-0.7-0.5-1-0.4
			c-1.7,0.5-3.6,0.9-5.1,1.8c-0.5,0.3-0.1,2.2-0.2,3.3C292.3,81.9,292.3,82.1,292.3,82.2z M278.7,97.2c2.8,0,2.8,0,3.2-2.4
			c0.2-1.1,0.3-2.1,0.6-3.2c0.7-2.1,0.1-3.7-1.1-5.4c-2.4-3.3-2.3-3.4-6.3-2.6c-0.2,0-0.5,0-0.7,0.1c-0.2,0.1-0.6,0.3-0.6,0.5
			c-0.7,2.9-2.5,5.9,0.2,8.8c0.6,0.6,1,1.4,1.4,2.1C276.1,96.9,277.3,97.5,278.7,97.2z M297.4,75.9c-0.5-1.7-0.9-3.3-1.4-4.9
			c-0.1-0.3-0.3-0.6-0.6-0.7c-3-1-6-1.9-9-0.1c-2.5,1.4-2.8,1.6-2.3,4.4c0.1,0.4,0.5,0.9,0.9,1c2.1,0.7,4.2,1.3,6.3,1.9
			c0.3,0.1,0.7,0.2,1.1,0.1C293.9,77.1,295.6,76.5,297.4,75.9z M274,83.2c1.1-0.2,2.1-0.4,3.1-0.6c1.1-0.1,1.9-0.6,2.5-1.7
			c0.7-1.3,1.6-2.7,2.7-3.8c1.6-1.6,1.1-3.4,0.9-5.6c-2.1,0.6-4.1,0.8-5.7,1.8c-1.6,1-2.7,2.8-3.9,4.3c-0.3,0.3-0.5,0.9-0.4,1.3
			C273.3,80.3,273.7,81.7,274,83.2z M284.8,105.3c5.4,1.1,10.3,0.2,14.7-2.9c0.3-0.2,0.8-0.8,0.7-1.1c-0.1-0.4-0.6-0.9-1-1.1
			c-2.4-1-4.7-1.2-7.1,0c-0.9,0.5-1.9,0.8-2.9,1C286.9,101.6,285.7,103.2,284.8,105.3z M305.4,80.2c-0.3,0.6-0.8,1.2-0.8,1.8
			c-0.3,3.4-0.5,6.7,0.8,9.9c0.1,0.3,0.4,0.5,0.6,0.7c0.2-0.2,0.5-0.4,0.6-0.7C307.7,88,307.4,84.1,305.4,80.2z M271.3,90.8
			c0.3,4.1,3.4,9.2,6.4,10.8C276.2,97.6,273.9,94.1,271.3,90.8z M305.9,93.3c-0.2,0.1-0.5,0.2-0.6,0.3c-1.4,2.1-2.9,4.1-4.3,6.2
			c-0.2,0.3-0.1,0.7-0.1,1.4C303.5,98.9,305.2,96.5,305.9,93.3z"/>
	</g>
</g>
</svg>
