<?xml version="1.0" encoding="utf-8"?>
<!-- Generator: Adobe Illustrator 26.3.1, SVG Export Plug-In . SVG Version: 6.00 Build 0)  -->
<svg version="1.1" id="Layer_1" xmlns="http://www.w3.org/2000/svg" xmlns:xlink="http://www.w3.org/1999/xlink" x="0px" y="0px"
	 viewBox="0 0 400 400" style="enable-background:new 0 0 400 400;" xml:space="preserve">
<path d="M95.3,94.6c1.6-1.4,3-3,4.8-4.1c7-4.1,14.1-8,21.2-12c0.9-0.5,1.9-0.9,3.3-1.6c0,24.5,0,48.6,0,73.5c1.6-1,2.5-1.5,3.4-2.2
	c7.3-5.7,14.6-11.2,21.7-17.1c1.5-1.3,2.8-3.8,2.8-5.7c0.2-19.3,0.5-38.6-0.1-57.8c-0.2-5.8,1.7-8.5,6.3-10.8
	c6.6-3.4,12.9-7.3,19.4-10.9c1.1-0.6,2.3-1.1,4-2c0.1,1.9,0.2,3.3,0.2,4.7c0.2,29.6,0.3,59.1,0.5,88.7c0,4.5-1.6,7.6-5.2,10.3
	c-9.6,7.3-19,14.9-28.9,22.6c1.3,1.2,2.3,2.1,3.4,3c8.8,7,17.5,14.1,26.4,21c3.2,2.5,4.6,5.4,4.5,9.5c-0.2,16.9,0.1,33.8-0.2,50.6
	c0,3.1-0.9,6.6-2.6,9.1c-8.2,11.3-16.8,22.4-25.3,33.5c-0.4,0.5-1,0.9-2.2,1.9c0-2,0-3.2,0-4.5c0-26.1,0-52.2,0.1-78.3
	c0-3.3-1-5.6-3.6-7.6c-7-5.3-13.8-10.8-20.6-16.1c-1-0.8-2.1-1.4-3.6-2.4c0,40.1,0,79.5,0,118.9c-0.5,0.1-0.8,0.2-0.9,0.1
	c-9-12.5-19.2-24.3-24-39.3c-2-6.2-3.2-12.7-4.7-19.1C95.3,198.5,95.3,146.5,95.3,94.6z"/>
<path d="M233.9,332.7c0-7.6-0.3-15,0.1-22.3c0.4-6.7-1.9-11.9-6.3-16.9c-8.5-9.6-16.6-19.5-24.5-29.5c-1.8-2.2-2.9-5.6-2.9-8.4
	c0-58.5,0.1-117,0.2-175.5c0-10.9-0.1-21.8-0.2-32.7c0-0.9,0.1-1.9,0.2-3.4c1.5,0.6,2.7,1,3.7,1.6c26.6,15.1,53.1,30.3,79.7,45.4
	c2.7,1.6,4.2,3.5,4.2,6.8c0,47.1-0.1,94.3,0.4,141.4c0.2,16.2-4.2,30.9-11.8,44.8c-10.4,18.9-24.7,34.5-41.4,48.1
	C235,332.4,234.7,332.4,233.9,332.7z M247.7,273.9c3.4-7.1,6.6-13.2,9.4-19.5c0.9-2,1.1-4.4,1.1-6.7c0.1-15.2,0.1-30.4-0.1-45.6
	c0-1.4-1.1-3.5-2.3-4.2c-7.2-4.2-14.6-8.1-22-12.1c-0.9-0.5-1.9-0.8-3-1.3c-0.1,0.9-0.3,1.5-0.3,2c0,20.1-0.1,40.2,0,60.3
	c0,1.8,0.4,4,1.4,5.4C236.8,259.3,241.9,266.1,247.7,273.9z M231.1,95c-0.3,0.7-0.6,1-0.6,1.3c0,16.6-0.1,33.2,0.1,49.8
	c0,1.6,1.5,3.9,3,4.7c7.2,4.3,14.5,8.3,21.8,12.3c0.8,0.4,1.7,0.7,2.8,1.1c0-14.2-0.7-28,0.3-41.6c0.7-9.6-2.1-15.3-11.1-18.9
	C241.7,101.6,236.6,98.1,231.1,95z"/>
<path d="M191,294.8c-2,2.3-3.7,4.4-5.4,6.3c-2,2.2-1.4,3.6,1.1,4.9c11.4,6.3,22.7,12.7,34.1,19c5.6,3.1,6.8,9.9,1.8,13.8
	c-9.6,7.6-19.7,14.8-29.6,22.1c-2.1,1.6-3.5,0.2-5.1-0.9c-15.9-10.7-30.2-23.4-44.6-36c-3.2-2.8-6.6-5.5-9.8-8.4
	c-0.9-0.8-2.2-2-2.2-3c-0.2-6.8-0.1-13.5-0.1-20.8c20.2,16.8,40,33.3,60.1,50c3.7-3.1,7.4-6.2,11.4-9.5c-1.5-0.9-2.6-1.6-3.7-2.2
	c-11-6.2-22.1-12.3-33.1-18.6c-4.7-2.7-4.8-3.4-1.6-7.5c7.9-9.9,15.8-19.8,23.6-29.8c2.8-3.5,3.9-3.6,6.7-0.3
	c9.7,11.4,19.4,22.8,29,34.2c0.7,0.8,1.1,1.8,1.6,2.6c-0.2,0.4-0.4,0.8-0.5,1.2c-6.1-1.6-12.6-2.2-18.1-5
	C201,304.1,196.4,299.1,191,294.8z"/>
</svg>
