<?xml version="1.0" encoding="utf-8"?>
<!-- Generator: Adobe Illustrator 26.3.1, SVG Export Plug-In . SVG Version: 6.00 Build 0)  -->
<svg version="1.1" id="Layer_1" xmlns="http://www.w3.org/2000/svg" xmlns:xlink="http://www.w3.org/1999/xlink" x="0px" y="0px"
	 viewBox="0 0 1000 513" style="enable-background:new 0 0 1000 513;" xml:space="preserve">
<style type="text/css">
	.st0{fill:#0B203F;stroke:#FFFFFF;stroke-width:0.5;stroke-linecap:round;stroke-linejoin:round;}
</style>
<g id="features">
	<path id="AT3" class="st0" d="M660.8,100L660.8,100l0.5-0.6l0.6-4.6v-5.6l0.4-4.8l2.2-3.7l1.6-1.4l0.1-0.1l4.6-4l0.6-3.5l1.2-2.1
		l0.5-2.2l0.7-1.7l1.1-0.5l0.6-0.2h0.1h0.2l6,0.9l6.2,2.5l2.4-0.2l0.1-0.2l1.2-3l-0.2-0.3l-0.5-1.2l-0.6-1.4l-0.2-1.2l0.2-1.2
		l0.9-2.3l2.5-11.4v-5l-0.5-5.5l0.1-5.2l1.6-3.8l-0.1-1v-0.8l0.2-0.7l0.3-0.3l2.1-0.2l0.6-0.1l6.6,2.3l1.1,0.1h0.6l7.6,0.6l0.8,2.6
		l0.5,2.5v2.4l-0.8,2.6l2.4,0.1l9.1-2.5l0.6-0.4l1.2-1.4l0.4-0.6l0.4-0.9l0.3-2.5l0.5-0.7h0.9l0.6,0.7l0.1,0.1l0.4,0.8l0.6,0.5h5.6
		l2.6,0.8l5.8,2.9l1.8,0.6l0.9,0.3l2.6,0.9l2.5,1.5l4.2,3.6l0.8,0.7l0.9,0.8l2.7,1.1l7.1,2.7l9.3,5.3l2.7,0.6h2.7l1.6-0.5l0.4-0.1
		l3.2-1.7l0.6-0.3l0.2-0.1l0.3-0.2l1-0.2l2.5-0.1h1.1l0.7,0.6l0.1,0.1l0.4,2.1l0.6,0.9l0.8,0.4l2.3,0.1l1.3,1l0.9,0.4l1-0.1
		l-1.2,1.7l1.5-0.4l1.3,0.1l0.9,0.8l0.1,1.9l2-0.5l0.7,0.7v1.3l0.1,0.9l12,8.7l1.5,0.7l0.3,0.1l1.4,0.6l0.2,0.1l2.9,1.3l1-0.1l9-0.5
		l1.1-0.1l5.4,0.8l6.7,1l4.5,0.7l0.2-0.1l2.4-0.4l1.6,1.3l0.7,0.2l1.9-0.6l1.3-1.2v-0.1l6-10.3l2.1-1.4l1.6,0.3l1.8,0.3l1.2-0.1
		l2-0.8l0.2-0.1l1.1-0.2l0.4,0.2l0.7,0.2l2,1.3l2.3,0.7l4.8,1.4l2.3,0.2l1.7,0.8l0.5,0.2l1,2.2l0.4,2.5l0.9,2.2l1.5,1.1l0.9,0.1
		l0.9,0.2h0.1l4.6-0.2l1.8,0.7l1,0.6l3.3,2.2l2.2,0.9l1.9-0.3h0.4l4.6-1.7l1.9,0.2h0.1l2.7,4l1.7,11.9l1.4,1.7h0.1l2.6,3.1l1.1,8.4
		l-0.6,2.3l-0.3,0.9l-1.9,2.1l-2,1.6l-0.9,1.7l-0.6,2.4l-3.1,4.5l-1.2,2.4l-0.5,2.6l-1.1,9.6l-0.3,1.1l-0.3,0.5l-0.2,0.8l-0.1,2
		l0.4,1.1l0.9,0.6l2.4,0.2l0.7,0.4l1.3,1l1.2,1.4l0.5,1.4l-0.3,0.8l-0.4,1.1l-0.2,0.9l0.5,0.3l0.3,0.4l0.4,0.9l0.4,1l0.1,0.9l0.4,1
		l0.9,0.6l1.1,0.5l1.3,1.2l0.8,0.3l0.4,0.6l0.1,0.8l-0.1,2v0.9l1.9,6.4l0.6,3.2v3.9l0.8,2.8l3,3.3l1.7,1l1.9,0.3l1.2,0.8l1.8,3.3
		l-1.5,1.5l-0.8,0.4l-1,0.3l-1.4-0.3l-1.1-0.7l-1.2-0.6l-0.9,0.4l-1.6,1.6l-0.4,2.7l0.1,1.2l0.3,1.4l-0.1,1.5l-0.9,1.6l-1.4,0.9
		l-1.9-1l-3.7-2.8l-1.8-0.9l-2.5,0.3l-2.7,1.3l-4.9,3.6l-5,2.3l-1.4-0.2l-1.4,0.3l-2.5,1.2l-3,2.4l-1.6,4.5l-1.2,2.2l-1.7,1.6
		l-4.1,2.9l-2.3,2.4l-4.7,2.3l-8.4-2.7l-4.1,0.2l-3.5,1.1l-5.7,4.5l-1.9,2l-1.8,3.5l-0.3,6.9l-0.4,2l-0.7,1.6l-1.5,1.7l-1.4,1.2
		l-4.1,0.5v10.8l0.9,2.2l1.8,3.1l4.1,4.8l3.5,5.4l-4,7.7l-0.7,1.1l-1.2,2.1l-0.6,2l-0.4,3.9l0.4,2.5l0.6,2.1v2.2l-0.3,1.8l-6.2,6.7
		l-1.9,1.5l-3,1.6l-3,0.6l-6.9-0.2l-4.1-3.5l-1.3-2.6l-0.7-1.9l-0.2-0.8l-0.1-1.2l-0.3-1.3l-0.4-0.9l-0.4-0.5l-0.5-0.2l-2.8,1.4
		l-1.2,0.4h-0.9l-0.9-0.4l-1.1-1.1l-2.9-1.6l-9.8-1.7l-1.4-4l-1.5-2.8l-3.1-2.4h-2.9l-0.9-0.2l-0.7-0.4l-0.3-1.1l0.1-0.8l0.5-1.7
		l0.2-1.3l-0.1-1.2l-0.2-1l-0.1-0.5l-0.8-1.4l-0.6-0.7l-0.9-0.6l-1.5,0.3l-4,2.2l-1.3,0.1l-1.1-0.8l-0.9-2.3l-0.5-2l-0.7-5.1
		l-0.5-1.3l-0.9-0.8l-1.5-0.3l-1,0.2H779l-1.3-0.3l-2.3-1.2l-1.7-1.1l-1.4-2l-2.5-2.7l-8-0.7l-4.6-3.3l-9.9-4.8l-5-4.7l-1.9-0.8
		l-2.4-0.2l-7.3,1.8l-0.8,0.1l-4.9-0.8l-3.3,4.2l-0.7,1.3l-1.1,1.4l-1.3,0.8l-4.6,1l-6.1,2.4l-3.6,1.1h-1.2l-2-0.4l-1.8,0.1
		l-2.4,0.6l-4.8,2.1l-2.9,1.8l-3,0.7l-2.5-0.3l-3.6-3l-1.1-1.2l-0.7-0.4l-12.4,0.1l-4.2-3.4l2.1-4.3l0.2-2.2l0.1-4.1l1.6-6.6l2.1-3
		l0.1-3.4l-0.9-1.3l-1.2-1.5l-2.5-2l-2.6-1.5l-3.8-1.1l-6.2-3.1l-19.2-14.6l-2.2-2.6l0.2-0.8l0.9-0.2l0.5-0.4l0.6-0.5l1.7-3.2
		l0.1-0.6v-0.9l0.1-0.4l0.1-0.4l1.4-1.6l0.7-1.1v-0.7l-0.2-0.5l-0.3-0.5l-0.2-0.7l-0.6-5l0.3-1l0.6-1.5l0.3-1.6l0.7-7.1l0.2-1.1
		l0.2-0.4l0.2-0.4l0.4-0.4l0.8-0.7l0.8-0.4l1.6-1.3l5.3,0.1l2.1,0.7l1.8,1.2l1.5,1.8l3.3,4.7l2,1.9l2.5,0.7l17.1-4.1l1.6-1.4
		l1.8-2.5l1.7-1.7l2.2-1l5.9-0.3l1.3,0.4l1.5,0.8l1.8,2.2v-4l0.9-15.5l-1.4-8.8l-0.6-1.6l-2.3-1.8l-0.6-5.8l-3-1l-2.7-3.8l-0.5-1.9
		v-1.5l0.2-1.1v-1.6l0.1-0.7l0.2-0.3l0.5-0.1l2.7,0.2l0.4-0.3l0.1-0.8l-0.2-1.8l-1.2-2l-1.7-1.4l-1.9-0.7l-4.4-0.6l-3.8-2l-3.9-1.7
		l-7.5-1.7l-2.2-2.1L660.8,100L660.8,100z M874.3,153.5l-0.4-0.5l-3.2-5.7l-0.7-0.9l-3.7-0.3l-0.4,1.4l-1,0.8l-2,0.6l-4.3,2l-8,5.2
		l-0.6,1l-1.4,1.3l-1,0.7l-1.5,0.4l-1.6,0.2l-2.9-1.4l-0.9,0.9l-0.8,1.2l-0.3,0.6l-0.4,1.4v1.6l1,1.6l0.9,1l0.5,1.2l0.3,1.1l-1,5.1
		l1,1.7l0.7,0.8l0.5,1.2l1.4,0.8l7.3,0.6l3.2-0.6h3.1l1.6,1.1l2.2,1l1.1,0.3h2.7l1.2-0.8l0.6-0.7l0.4-0.9l0.4-0.6l1-0.9l1.7-0.5
		l5.6-0.3l8.3,1.6l-2.6-5.5l-0.8-2.5l0.6-4.9l0.9-3.7l0.1-0.6l-0.2-0.4l-0.3-0.7l-0.9-0.9l-0.5-2.3l-0.3-1.3l-1.3-1.4l-0.6-1.5
		l-1.3-1.1l-2.2,0.4l-0.8,1.3L874.3,153.5L874.3,153.5L874.3,153.5z"/>
	<path id="AT4" class="st0" d="M441.1,208.2l-0.3-1.9l-1.8-4l-8.4-8.8l-1.1-1.8l-1-2.1l-0.6-2.4l0.2-2.4l0.7-1.2l0.8-0.3h0.8
		l0.7-0.3l1.7-2.7l0.5-0.6l4.7-3.3l1.6-1.8l2.1-3.4l1.1-1.2l1.8-1l6.6-1.3l-0.1-0.4l1.8-1.5l3.9-2.2l4.4-4.2l1.9-1.4l12.4-4.9
		l16.4-2.9l4-2.2l11.6-10.3l1.7-2.8l0.7-3.8l0.2-0.9l0.6-0.9l0.5-1.3l0.2-1.8l-0.2-5.1l0.2-1.7l0.6-1.6l1.6-3.4l0.3-1.8l-0.2-1.6
		l-1.1-1.7l-0.5-3.2l-0.4-0.9v-0.6l0.6-1.3l1.1-1l3.9-1.4l4-0.6l12.3,3.5l2.1,1.1l1.9,1.5l1.9,2.8l4.8,2.2l0.3,0.3l1.1-4.8l1-2.1
		l0.4,0.1l2.5-0.4l0.9-0.4l1-1l0.6-0.8l2-4.5l0.7-2.4l0.4-2.6l0.1-3l-0.6-5.8l0.3-2.2l1.6-1.5l-1.5-0.7l-0.6-0.6l-1.3-2.5l-0.6,0.3
		l0.3-1.8l3.5-7.5l4.8,1.3l2.3,1.2l2.2,1.7l2.6,2.2l2.3,1.3l0.4,0.2l2.1,1.2l0.4,0.2l2.8,1.5l1,1.2l2,3l0.8,1.5l0.6,0.6l0.8,0.3
		l0.7,0.5l0.3,1.1l-0.2,1v0.2l-0.5,0.1l-0.5-0.1h-0.1l-0.4,0.3l-0.8,1.7h-0.1l-0.5,0.2l-0.3,0.5l0.6,2.5l0.5,1l2.1,2.6l1,0.8l4,1.8
		l16.9,1.9l9.2,3.2l0.4,0.1l0.4,0.2l1.4,0.5l0.3,0.1h0.1l1.2-0.1l0.9-0.4l2.4-1.9l0.3-0.1l1.3-0.6l2.8-1.2l1.8-0.8l0.9-0.9l1-1
		l2.7-7.1l0.4-0.3l1.3-0.9l2.9,3.3l4.7,2.5L642,96l1.8-0.4l0.4-0.2l3.2-1.5l1.5-0.2h0.3l0.8,0.7l0.1,1.1v1.2l0.4,0.8l0.9,0.1
		l1.9-0.6l0.7,0.1l1.3,1.7l0.7,1.7l1,1.2l1.9,0.1l1.9-1.8l0.2,0.5l2.2,2.1l7.5,1.7l3.9,1.7l3.8,2l4.4,0.6l1.9,0.7l1.7,1.4l1.2,2
		l0.2,1.8l-0.1,0.8l-0.4,0.3l-2.7-0.2l-0.5,0.1l-0.2,0.3l-0.1,0.7v1.6l-0.2,1.1v1.5l0.5,1.9l2.7,3.8l3,1l0.6,5.8l2.3,1.8l0.6,1.6
		l1.4,8.8l-0.9,15.5v4l-1.8-2.2l-1.5-0.8l-1.3-0.4l-5.9,0.3l-2.2,1l-1.7,1.7l-1.8,2.5l-1.6,1.4l-17.1,4.1l-2.5-0.7l-2-1.9l-3.3-4.7
		l-1.5-1.8l-1.8-1.2l-2.1-0.7l-5.3-0.1l-1.6,1.3l-0.8,0.4l-0.8,0.7l-0.4,0.4l-0.2,0.4l-0.2,0.4l-0.2,1.1l-0.7,7.1l-0.3,1.6l-0.6,1.5
		l-0.3,1l0.6,5l0.2,0.7l0.3,0.5l0.2,0.5v0.7l-0.7,1.1l-1.4,1.6l-0.1,0.4l-0.1,0.4v0.9l-0.1,0.6l-1.7,3.2l-0.6,0.5l-0.5,0.4l-0.9,0.2
		l-0.2,0.8l2.2,2.6l19.2,14.6l6.2,3.1l3.8,1.1l2.6,1.5l2.5,2l1.2,1.5l0.9,1.3l-0.1,3.4l-2.1,3l-1.6,6.6l-0.1,4.1l-0.2,2.2l-2.1,4.3
		l-7.6,6.2l-17.1,6.9l-1.3,1.8l-0.5,1.2l-1.3,1.3l-2,1l-3.8,1.1l-3,1.8l-5.3,4.1l-2.9,0.9h-3.5l-2.5-0.7l-2.5-1.2l-6.8-4.7l-1.1-0.2
		l-1.6,0.4l-4.4,2.1l-5.8,1.6l-2.4,1.7h-0.8l-0.6-1.7l-0.2-1.3l-1.3-3.4l-5.4-6.4l-5.2,0.7l-1.9-0.4l-3.1-1.2l-3.6-0.7l-1.6-0.6
		l-2.9-1.8l-1.1-0.1l-1.3,0.2l-12.7,6.4l-2,1.6l-1.5,2l-0.7,2.5l-0.3,2.2l-0.2,3.5l0.1,1.7l0.4,1.9l1,1.8l1.3,1.7l1.5,1.7l0.9,1.5
		l1.1,2.4l0.6,2.9l0.1,2.3l-0.5,1.9l-0.4,0.8l-0.5,0.5l-3,2.6l-0.3,0.7l-1.5,0.4l-1.1,0.6l-11.1-2.2l-6.8-4.4l-4.2-4.3l-1-2.4
		l-0.2-2.7l0.7-2.3l1.8-3.1l0.7-1.4l0.3-1.8l-0.3-1.5l-2-3.5l4.3-13.5l-0.5-1.5l-0.9-1.6l-3-0.4l-2.5-1.1l-1.1-0.6l-0.6-0.6
		l-0.4-0.6l-0.6-1.4l0.2-0.8l0.8-0.6l4.7-0.3l1.9-0.3l1.5-1.9l-2.8-2.5l-21.5-4.8l-1.9-1.3l-1.1-1.5l-0.5-1.6l-1.5-6.5l-0.3-2.3
		l-0.2-2.3l0.3-5l0.3-2.1l0.4-1.5l0.4-0.9l0.7-0.5l0.8-0.2l3.2,1l1.7,0.1l1.7-0.4l1.1-1.3l0.1-1.4l-1-1.2l-1.1-0.8l-1.2-0.6
		l-3.6-2.6l-8.1,3.8l-6.9,0.8l-4.5-0.6l-4.7-1.6l-0.6-0.3l-0.6-0.4l-3.5-3.7l-2.9-1.7l-3-0.5l-5.1,0.3l-2.2,0.7l-1.4,1.2l-0.9,2.7
		l-0.4,0.7l-1.4,1l-5.6,1.5L441.1,208.2L441.1,208.2z"/>
	<path id="AT1" class="st0" d="M834.4,303.8l6.9,0.2l3-0.6l3-1.6l1.9-1.5l6.2-6.7l0.3-1.8v-2.2l-0.6-2.1l-0.4-2.5l0.4-3.9l0.6-2
		l1.2-2.1l0.7-1.1l4-7.7l-3.5-5.4l-4.1-4.8l-1.8-3.1l-0.9-2.2v-10.8l4.1-0.5l1.4-1.2l1.5-1.7l0.7-1.6l0.4-2l0.3-6.9l1.8-3.5l1.9-2
		l5.7-4.5l3.5-1.1l4.1-0.2l8.4,2.7l4.7-2.3l2.3-2.4l4.1-2.9l1.7-1.6l1.2-2.2l1.6-4.5l3-2.4l2.5-1.2l1.4-0.3l1.4,0.2l5-2.3l4.9-3.6
		l2.7-1.3l2.5-0.3l1.8,0.9l3.7,2.8l1.9,1l1.4-0.9l0.9-1.6l0.1-1.5l-0.3-1.4l-0.1-1.2l0.4-2.7l1.6-1.6l0.9-0.4l1.2,0.6l1.1,0.7
		l1.4,0.3l1-0.3l0.8-0.4l1.5-1.5l0.6,1l1.5,1.7l-1.2,1.5l-0.6,1.8l-0.7,3.3l0.5,0.3l1.4,1.2l-0.6,2.9l2.7,1.5l3.9,1.4l2.7,2.5
		l-7.4,6.3l1.2,1.4v1.1l-0.6,1.2l-0.3,1.5l-0.3,0.3l-1.1,0.7l-0.3,0.5l0.1,0.8l0.6,0.4l0.6,0.2l0.3,0.3l-0.5,3.2l-0.7,2.3l-1.2,1.8
		l-1.9,1.6l-4.2,0.9l-1.5,0.8l0.1,1.9l0.7,0.8l2.5,1.2l1,0.7l1.1,3.3l0.8,1.1l-1.8,2l0.2,3.1l0.8,3.6l0.2,5.8l0.6,1.7l1,1.4l1.3,0.8
		l-2.4,1.2l-8.7,1.2l-9.4,2.3l-4.6-0.8l-1.7-4.6l-1.6,1.3l-2.3,3.7l-1.3,1.3l-1.1,0.3l-6.7-1.1l-1.3-0.8l-1.3-1.3l-0.3-0.6l-0.6-1.3
		l-0.5-1.8l-0.6-1.6l-1.5-1.1l-9.5-3.7l-5-0.7l-4.4,2l-0.7,1.7l0.2,2.4l-0.7,1.5l-1,1l-4.7,2.5l-1.5,1.3l-0.8,0.5l-0.5-0.1l-0.6-0.6
		l-0.7-0.9l-0.9,0.9l-1.8,3l-1,1.3l2.1,1.2l6.7,2.8l3.3-0.8l5.8,2.4l2.1,0.8l3.9-0.6l2.6,1.2l2.1,2.8l1,3.5l-0.7,3.5l2,1.1l1.7,1.7
		l0.9,2.2l-0.1,2.7l-1.3,2.3l-3.5,1.4l-1.3,1.5l0.5,7.1l-1.7,1.3l-4.5,3.5l-12.8,5.9l-1.4-2.3l-1.6-1.2l-1.5,0.5l-1.2,2.2l0.3,6.7
		l-0.3,0.5l-0.6,0.4l-0.5,0.4v1.1l0.3,0.6l0.5,0.3l0.6,0.2l0.3,0.4l3.6,7.6l0.5,2.9l-0.8,2.3l-1.7,1.6l-3.7,2l0.4,3.1l-1.8,3.8
		l0.4,2.9l0.7,0.6h0.9l1,0.1l0.8,1.1l0.1,1.5l-1,3v1l1.6,1l4-1.9l1.9,0.2l1.5,2.1l-0.6,2.1l-2.7,3.6l-2.5,1.6l-0.8,2.5l0.9,2.3
		l2.4,0.8l1.4,0.7l0.4,0.9l-0.4,1l-1.4,0.9l-5.3,2.1l-1.5,1.4l3.4,0.4l1.7,0.6l1.7,1.6l0.5,1.9l-2.2,0.5h-3.1l-2,0.4l-0.5,0.5
		l-0.6,0.1l-0.6-0.1l-0.7-0.5l-2-1.6l-2.5-0.3l-4.9,0.6l-4.4-0.9l-1.7,0.2l-1.1,2l-0.5,2.6l-1,0.8l-1.2,0.3l-1.2,1l-0.3,1.1l0.1,1v1
		l-0.8,1.3l-0.9,0.6l-2.4,1.1l-3.1,2.2l-1.4,1.5l-4.3,5.9l-1.5,1.5l-1.9,0.8l-4.9,3l-2.5,1.4l-0.4,0.2v-0.1l-0.1-0.7l-0.1-2
		l-0.2-0.4l-0.5-0.7l-1.5-1.2l-0.6-0.8l-0.1-1.1l0.5-2.9l0.1-1.8l0.4-1.7l0.9-1.6l4.3-3.8l5.7-7.6l3.2-4.6l0.8-1.9l0.1-1.1l-0.3-1.5
		l-4.3-5.5l-1.1-2l-0.4-2.4l-0.2-1.8l1.3-5.5v-4.7l-3.3-12.7l-0.1-2.8l-1-6.6l-1.1-4.9l-1.3-4.4l-2.1-5l-0.2-1.5l0.4-1.5l1.8-2.5
		l1.2-1.2l1.5-0.2l0.6,1l0.4,1.2l0.4,0.7l2.2-1.2L834.4,303.8L834.4,303.8z"/>
	<path id="AT8" class="st0" d="M122.5,333.9l1.9,5l1.5,7.9l0.1,1.7l-0.3,4.9l-1.8,4.4l-4.6,7l-1.2,3.3l-1.4,7l-0.2,2.7l0.1,2.1
		l0.4,2.4l0.1,1.9l-0.4,3.1l-0.7,2.1l-1.3,1.8l-1.5,1.3l-1.5,2l-0.4,1.4l0.3,1.8l2.7,4.4l2.1,5.7l0.1,0.5h-1.6l-5.2-1.7l-2.6-1.5
		l-4.6-4.4l-12.8-4.2l-3-2.2l-1.5-2.2l-0.2-1.6l0.4-1.9l0.3-4.1l0.5-1.7v-1l-0.5-0.5H85l-0.5-0.4l0.2-2l-22.5-7.1l-2-0.3l-6.3,0.7
		l-2.2-0.5l0.9-1.1l2-2.6l0.4-0.5l0.8-4.6l-0.2-0.7l-0.5-2l-0.5-1.7l-2.8-4l-1.8-1.1l-1.8-1v-1.5l1.2-2.7l0.1-1.2l-1-2.5l-1.1-1.5
		l-0.6-1.5l0.4-1l0.4-1.5l-1.5-1.4l-0.5-0.4l-1-1.6l3.8-6.6l4.1-4.9l0.4-1.2l0.6-3.1l0.6-1.6l4.6-5.8l1.2-2.7l0.1-7.4l-3.5-3.1
		l-4.4-2l-3.5-5.3l-0.2-1.1l-0.7-3.1l0.3,0.2l0.5,0.1l7,1.9l7.6-0.1l3.2-1.5l1.8-2.7l1.4-3.3l2.6-3l1.8-0.9l1.8-0.2l1.6,0.6l1.4,1.5
		l0.4,2.1l-0.2,2.2l0.5,1.8l2.4,1.3l0.9-0.1l1.5-0.9l0.6-0.2l3.6,1.3l3.5,0.3l1.8-0.3l1.5-1.2l0.3,2.9l1.3,1.7l1.5,1.5l1,2.3v0.6
		l0.1,0.5l0.2,1l1.3,0.8l1-0.4l1.1-1l1.3-0.6l5.9,8.6l1,2.1l-0.5,1.9l-2.7,2.1l1.3,1.5l0.3,1.8l0.1,1.9l0.6,1.7l1.2,1.1h0.8l0.9-0.7
		l1.6-0.7h0.6l1.2,0.8h0.6l0.5-0.4l1.4-1.6l5.3-0.9l2.2,1.2l-0.1,3.1l-2.2,6.5l0.3,1.2l0.1,1.1l-0.3,1.1l-0.6,0.6l-1.6,0.5l-0.5,0.3
		l-1.1,2l-0.4,1.1l0.5,0.3L122.5,333.9L122.5,333.9z"/>
	<path id="AT7" class="st0" d="M122.5,333.9l7.7-1l2.6-1l5.3-3.3l2.3-2.1l2.2-2.9l2.6-5.3l0.7-1.1l1.3-0.9l2.5-0.8l1-0.7l2-2.7
		l1.7-3.5l1.1-4v-3.8l-0.5-2.2l-0.7-1.5l-1-1.2l-1.7-0.9l1.2-7l0.2-1.6l-0.8-2l-1-2l-0.2-1.5l1.8-0.7l2-0.4l0.9-0.3l0.4,0.3l0.5,1.7
		l-0.1,0.7l-0.6,0.8l-0.4,1.1l0.2,1.5l0.6,0.9l1,0.6l1.8,0.9l5.1,0.8l1.4-0.3l1.5-1.2l2.5-3.4l1.6-1.1h2.9l15.7,6l0.5,0.5l0.4,0.9
		l0.6,0.9l1,0.3l3.5-0.4l4.8-2.2l1.7-0.5l1.7,0.1l1.2,0.7l2.8,2.1l-1,1.2l-3.9,2.6l0.8,1.4l6.2,2.9l5.9,6.4l0.4,0.8v1.2l-0.2,1.2
		l-0.4,0.8h-0.3l1.2,2.4l1.7,1l12.4,0.2l2.3-0.7l7.8-5.4l3-0.9l2.6,1.1l-0.3,4.8l2.9,0.3l2.6-1.2l1.7-1.8l1.5-2.2l2.3-2.1l2.3-0.7
		l5.1-0.1l2-0.9l1-1.7l-0.5-1.3l-1.3-0.9l-1.4-0.4l5.6-6.5l2.7-0.6l2.9,0.4l2.7,0.8l5.6-0.9l2.6-1l2.2-2.4l0.6-1.7l0.9-4.1l0.8-1.8
		l3.4-2.9l0.4-0.5h2.2l5.2,1.1h9.7l6.7,1.4l1.2-0.4l1.2-3l1.4-0.8l10-2.1l27.4,1.2l0.9-0.2l3.4-4.3l0.4-1.2l0.2-1.6l-0.2-4.7l-0.4-1
		l-0.6-0.4l-0.9-1l-0.9-1.2l-0.4-0.9l-0.2-1.5l1.8-0.8l2.9-2.3l1-0.7l1.8-0.8h0.3l-0.4,0.8l-0.3,1.9l-0.4,1.4l-0.8,1l-0.4,1.3
		l0.7,1.9l1.2,1.1l1.3-0.2l2.6-1.4l2.6-0.4l6.9,1.5l2-0.3l4.7-1.8l2,0.3l0.5,1.1l1.3,3.7l0.6,1.5l1,1.1l3.5,2.9l1.7,0.8l2.4,0.1
		l2.6-0.5l1.8-0.8l1.2-1l3,5.3l2.5,2.3l4.2,2.8l1.1,1.2l0.4,0.9l-0.1,0.8l-0.6,1.4l0.2,1.4l0.4,2.1l2.3,5.9l0.3,1.1l-0.2,0.7
		l-0.6,1.3l-0.8,1.4l-2.4,3l-1.2,2.1l-2.5,5.5l-0.9,1.3l-0.9,1.1l-1.1,0.9l-1.2,0.8l-1.3,0.6l-5.9,0.6l-1.2,0.3l-0.9,0.4l-0.7,0.9
		l-0.8,1.6l-1.1,3.3l-1.2,1.9l-1.5,1.4l-1.5,0.9l-2.3,0.8l-3.9,0.6l-1.8-0.1l-1.6-0.5l-2.6-1.5l-1.5-0.3l-1.7,0.2l-4.2,2.6
		l-13.3,4.8l-3.7-0.1l-1.6,0.3l-3.3,1.8l0.2,3.5l-1.6,6.9l-0.3,2.6v3.2l0.3,1.9l0.6,1.8l0.7,1.1l2,1.7l0.9,0.9l0.9,2.4l0.5,1.8
		l0.3,6.6l-0.1,0.7v0.1l-2,0.4l-12.1,6.3l-8.5,0.4l-5.3,1.9l-5,2.7l-4.1,3.3l-5.5,0.8l-1.3,0.9l-2.3,1.9l-1.4,0.3l-2.2-0.8l-3.9-2.9
		l-2.2-0.2l-0.9,0.1l-0.9-0.1h-0.2H298l-6.1-1.3l-2.8,0.3l-3.5,1l-1.2,0.6l-1.1,0.2l-1.1-0.2l-1-0.6l-0.6-0.8l-0.7-0.7l-0.7-0.4
		l-2.1-0.5l-1.2,0.2l-1.1,0.8l-0.9,1.4l-4.1,4l-3.6-0.2l-3.7-1.8l-4.3-1l-8.3,1.4l-8.3,2.7l-2.1,1.3l-7.7,7.7l-1,2.1l-1.3,6.2
		l-2.2,5.3l-0.1,0.7l0.1,1.8l-0.2,0.9l-0.5,0.6l-1.3,0.5l-0.5,0.5l-2.7,4.6l-1.6,1.8l-1.7,0.2l-2.1-0.7l-4.1-0.4l-2.1,0.3l-3.9,1.3
		l-1.2,0.1l-1.2-0.5l-2.1-1.7l-1-0.6h-1.3l-2.2,0.7l-1.2-0.1l-3.4-1.9l-1.4-0.5l-2.5,0.8l-1.3-0.1l-0.7-1.5l0.5-0.8l2.7-2.2l0.6-1.2
		l-1.2-1.8l-9.1-5.4l-1.8-0.5l-2.2,0.2l-12.1,3.4l-4.9-0.6l-3.9-3.1l-0.3-3.8l1.5-5.9l-0.6-2.9l-1.1-1.3l-4-3.2l-2.5-4.1l-1.3-1.3
		l-0.6-0.4l-0.7-0.1l-0.6,0.1l-3.5,2l-3,3.4l-2.1,4v3.3l-3,0.1l-2.3-0.6l-1.9,0.4l-1.9,3.1l-0.5,2.2l-0.1,1.4l-0.3,1.4l-1.3,1.7
		l-5.2,2.7l-3,0.9l-0.9-0.1l-0.1-0.5l-2.1-5.7l-2.7-4.4l-0.3-1.8l0.4-1.4l1.5-2l1.5-1.3l1.3-1.8l0.7-2.1l0.4-3.1l-0.1-1.9l-0.4-2.4
		l-0.1-2.1l0.2-2.7l1.4-7l1.2-3.3l4.6-7l1.8-4.4l0.3-4.9l-0.1-1.7l-1.5-7.9L122.5,333.9L122.5,333.9z M364.3,369.9l3.3-1.8l10.6-4.8
		l7.1-6.9l2-0.9l2.5-0.4h2.8l4.2-0.8l3.1,0.1l3.5,1.2l3.2,0.2l2.3,0.6l2,1.1l4.7,4.5l0.3,3.4l1,1.3l1.5,1.3l10.3,3.5l1,1.3l-0.1,1.9
		l-1.5,3.6l-0.3,1.3l-0.2,1.3v0.7l0.1,0.8l0.4,1.7l0.8,1.5l1.2,1.6l1,2l2.4,2.2l1.2,0.9l1.5,1.6l0.9,1.9l0.6,2.4l0.3,2.3l0.8,2.7
		l1.2,1.8l5.5,5.8l7.2,10l0.7,1.4l-0.1,0.6l-0.1,0.3l-0.2,0.5l-0.4,0.4l-0.4,0.1l-1-0.2l-4.2-3.2l-1.3-0.5l-1.4,0.2l-4.8,2.1
		l-10.6,1.6l-2.6,1.3l-0.3,3l-0.6,2.1l-0.9,2.5l-3.9,7.8L420,442l-0.2-0.1l-5.9-0.6l-6.9,1l-1.8-0.2l-1.9-1l-3.7-2.5L396,438
		l-2.9-0.5l-4.8-2l-4.1-3.7l-2.3-5.5l-1-3.8l-2-1.3l-2.5-0.4l-2.5-0.9l-1.1-0.8l-0.7-0.7l-0.3-1.2v-2.3l0.3-2l0.5-1.2l0.3-1.2v-2.2
		l-1.1-3.8l-1.9-1.3l-5-0.2l-1.6-0.6l-0.8-0.8l-0.6-1.1l-1.4-1.4l-1.3-0.7l-2.8-0.5l-1.3-0.5l1.8-1.7v-1.6l-0.8-1.7l-0.8-1.9l-0.7-4
		l-0.5-2l-0.8-1.8l1.2-3l7.2-4.1l2.6-3.4L364.3,369.9L364.3,369.9z"/>
	<path id="AT5" class="st0" d="M407.2,268.8l4.1-3.8l2.3-1.1l4.2-1h4.3l6.7,1.7l2-0.3l-1.2,3.1l1.9,2.3l3.1,2.1l2.3,2.3l-3.2,1.6
		l-1.5,4.1l0.7,4.3l2.9,2.4l1.8,0.3l1.2,0.4l1,0.8l5.4,6.1l5.8,4.4l1.4,0.5l1-0.3l0.9-0.6h1.3l1.1,0.6l0.7,0.7l0.7,0.5l1.3-0.1
		l0.8-0.7l3.4-4.1v-1.4l-0.3-1.1l-0.4-0.9l-0.2-1l-0.1-1.1v-3l0.2-0.5l1.2-2.9l0.1-0.2l-0.2,0.1l-0.1-4l0.3,0.1l1.9-2.5l0.1-0.5
		l1.4-3.5l0.3-0.4l0.2-2.2l0.1-2.1l-0.3-2.3l-1-2.5l-2.3-4l-1.5-1.8l-1.4-1.1l-1.9-0.3l-3,1.3l-1.8,0.3l-6.6-1.2l-2-2l2.2-3.5h0.1
		l0.7-1.2l0.2-1.2l0.1-1.1l0.2-1.2l0.7-1.4l7.7-12.3l-0.6-0.6l-2.6-3.9l-4-9.4l-2-1.9l-1-0.6l-2.4-2.4l-2.8-1.8l-1-1.4l-0.6-1.8
		l-0.1-0.3l2.4-1l5.6-1.5l1.4-1l0.4-0.7l0.9-2.7l1.4-1.2l2.2-0.7l5.1-0.3l3,0.5l2.9,1.7l3.5,3.7l0.6,0.4l0.6,0.3l4.7,1.6l4.5,0.6
		l6.9-0.8l8.1-3.8l3.6,2.6l1.2,0.6l1.1,0.8l1,1.2l-0.1,1.4l-1.1,1.3l-1.7,0.4l-1.7-0.1l-3.2-1l-0.8,0.2l-0.7,0.5l-0.4,0.9l-0.4,1.5
		l-0.3,2.1l-0.3,5l0.2,2.3l0.3,2.3l1.5,6.5l0.5,1.6l1.1,1.5l1.9,1.3l21.5,4.8l2.8,2.5l-1.5,1.9l-1.9,0.3l-4.7,0.3l-0.8,0.6l-0.2,0.8
		l0.6,1.4l0.4,0.6l0.6,0.6l1.1,0.6l2.5,1.1l3,0.4l0.9,1.6l0.5,1.5l-4.3,13.5l2,3.5l0.3,1.5l-0.3,1.8l-0.7,1.4l-1.8,3.1l-0.7,2.3
		l0.2,2.7l1,2.4l4.2,4.3l6.8,4.4l-0.9,2.6l-0.9,3.3l-0.1,1.3l1.1,6.3l3.5,11.8l3.2,6.5l3.7,3.6l2.1,1.4l1.7,0.5l1.7-0.6l1.6-1.3
		l2-0.8l3.4-0.4l1.8-1.2l1.8-0.6l1.5,1.1l2,3.9l2.6,4.1l0.6,1.7l0.3,1.5l0.6,1.8l0.9,1.6l4,5.1l3.5,2.5l1,1.5l-0.3,1.8l-2.3,3
		l-3.5,3.4l-1,1.6l-0.2,2.2l0.2,3.5l-0.6,1.9l-1.3,3.4l-5.2,9.5l-4.6,5.9l-3.4-4.6l-10.3-8l-4.2-2.2l-3-0.9l-5.3-0.5l-12-2.5
		l-2.6-0.2l-11-2.9l-4.7-1.5l-2.2,0.2l-1.8,0.4l-3,2.9l-2.7,2.2l-6.3,3l-4.7,1.1l-8.9,0.5l-3.6-0.4l-2.2-0.6l-2-1.1l-9.5-6.2
		l-5.8-1.8l-3.8-0.5l-7.3-1.8l-5.5-2.7l-4.7-3l-1.5-0.7l-1.1-0.1l-0.6,0.3l-0.3,0.5l-0.2,0.4l-0.1,0.6l-0.2,0.5l-0.4,0.6l-0.4,0.4
		l-1.5,1l-4.7-4.5l-2-1.1l-2.3-0.6l-3.2-0.2l-3.5-1.2l-3.1-0.1l-4.2,0.8h-2.8l-2.5,0.4l-2,0.9l-7.1,6.9l-10.6,4.8l-3.3,1.8v-2.2
		l-2.8-1l-5.6,1.1v-0.1l0.1-0.7l-0.3-6.6l-0.5-1.8l-0.9-2.4l-0.9-0.9l-2-1.7l-0.7-1.1l-0.6-1.8l-0.3-1.9v-3.2l0.3-2.6l1.6-6.9
		l-0.2-3.5l3.3-1.8l1.6-0.3l3.7,0.1l13.3-4.8l4.2-2.6l1.7-0.2l1.5,0.3l2.6,1.5l1.6,0.5l1.8,0.1l3.9-0.6l2.3-0.8l1.5-0.9l1.5-1.4
		l1.2-1.9l1.1-3.3l0.8-1.6l0.7-0.9l0.9-0.4l1.2-0.3l5.9-0.6l1.3-0.6l1.2-0.8l1.1-0.9l0.9-1.1l0.9-1.3l2.5-5.5l1.2-2.1l2.4-3l0.8-1.4
		l0.6-1.3l0.2-0.7l-0.3-1.1l-2.3-5.9l-0.4-2.1l-0.2-1.4l0.6-1.4l0.1-0.8l-0.4-0.9l-1.1-1.2l-4.2-2.8l-2.5-2.3L407.2,268.8
		L407.2,268.8z"/>
	<path id="AT2" class="st0" d="M420,442l0.6-1.3l3.9-7.8l0.9-2.5l0.6-2.1l0.3-3l2.6-1.3l10.6-1.6l4.8-2.1l1.4-0.2l1.3,0.5l4.2,3.2
		l1,0.2l0.4-0.1l0.4-0.4l0.2-0.5l0.1-0.3l0.1-0.6l-0.7-1.4l-7.2-10L440,405l-1.2-1.8l-0.8-2.7l-0.3-2.3l-0.6-2.4l-0.9-1.9l-1.5-1.6
		l-1.2-0.9l-2.4-2.2l-1-2l-1.2-1.6l-0.8-1.5l-0.4-1.7l-0.1-0.8v-0.7l0.2-1.3l0.3-1.3l1.5-3.6l0.1-1.9l-1-1.3l-10.3-3.5l-1.5-1.3
		l-1-1.3l-0.3-3.4l1.5-1l0.4-0.4l0.4-0.6l0.2-0.5l0.1-0.6l0.2-0.4l0.3-0.5l0.6-0.3l1.1,0.1l1.5,0.7l4.7,3l5.5,2.7l7.3,1.8l3.8,0.5
		l5.8,1.8l9.5,6.2l2,1.1l2.2,0.6l3.6,0.4l8.9-0.5l4.7-1.1l6.3-3l2.7-2.2l3-2.9l1.8-0.4l2.2-0.2l4.7,1.5l11,2.9l2.6,0.2l12,2.5
		l5.3,0.5l3,0.9l4.2,2.2l10.3,8l3.4,4.6l4.6,3.8l1.7,1.2l1.1,0.5l2.2-0.2l2.1-0.7l7.3-5.7l4.5-2.2l1.8-3.1l0.5-1.2l0.5-0.9l1-1.2
		l1.9-1.4l13-6.2l3.5-0.7l4.2,0.1l3.1,1.4l4.8,3.4l8.5,2.7l2,0.9l1.2,1l0.3,0.5l1.1,0.2l2.1,0.1l12.2-4.3l3.2,0.3l7.8-0.6l3.2,1.4
		l14.7-1.2l13.2-3.1l1.8,0.3l1.2,0.8l1.8,1.4l4.7,5.8l9.4,14.4l-0.3,5.2l-0.7,2.2l-0.8,1.5l-0.6,2.1l-0.2,1l0.2,1.6l0.6,2.3l1.8,4.2
		l1.4,6.2l0.3,5.8l1.4,4.1l7.4,8.6l1,1.2l0.1,0.1l-2.4-0.2l-2.8-0.4l-6.9,2.3l-4.4,6.3l-2.3-3.3l-1.7-0.3l-1.7,1l-2.6,1.7H685
		l-2.1,0.3l-1.6-0.2l-1.5,0.6l-2,3l-1.4,2.9l-0.9,2.8l-0.9,2.6l-1.3,2.9l-0.9,2.2l-0.7,0.6l-2.6,1.2l-3.1,0.5l-1-0.7l-2,0.9
		l-0.7,0.8l-0.6,1.2l-1.4,1.7l-0.9,2.1l-0.8-0.2l-0.8-0.1l-0.5,0.2l-2.4,2.5l-1.2,0.8l-1.2,0.3l-2.6,0.2l-1.2,0.5l-1.7,2.6l-1,3.3
		l-0.6,1.5l-0.5,1.4l-2.1,0.9l-1.6-1.7l-1.3-3l-1.7-2.2l-4.1,1l-2-0.3l-1.6-0.8l-2-0.9l-0.7-0.8l-0.4-1l-0.6-0.8l-1.2-0.3l-4,0.9
		l-14.3-0.4l-11-0.4H596l-1.2-0.4l-6.7-5.8l-1.8-0.8l-1.9-0.6l-2.1-0.1l-2.1,0.4l-2,0.3l-1.9-0.2l-10.9-5.2l-3.6-0.6l-7.7,1.3h-1.7
		l-7.8-1.9l-1.9-0.1l-1.8,0.3l-1.8-0.2l-14.4-4.7l-5.1-0.2l-0.9-0.6l-1.7-1.9l-0.8-0.3l-7.3,0.5l-5.2-0.9l-12.1,2.6l-4.9-0.3l-2.5-1
		l-7.5-4.6l-9.8-2.3l-27.9-2l-6.8-4.5l-3-1l-1-0.3l-0.9,0.1l-1.9,0.8h-1.2l-1.1-0.5l-2.1-1.6L420,442L420,442z"/>
	<path id="AT6" class="st0" d="M661.7,246.1l4.2,3.4l12.4-0.1l0.7,0.4l1.1,1.2l3.6,3l2.5,0.3l3-0.7l2.9-1.8l4.8-2.1l2.4-0.6l1.8-0.1
		l2,0.4h1.2l3.6-1.1l6.1-2.4l4.6-1l1.3-0.8l1.1-1.4l0.7-1.3l3.3-4.2l4.9,0.8l0.8-0.1l7.3-1.8l2.4,0.2l1.9,0.8l5,4.7l9.9,4.8l4.6,3.3
		l8,0.7l2.5,2.7l1.4,2l1.7,1.1l2.3,1.2l1.3,0.3h1.2l1-0.2l1.5,0.3l0.9,0.8l0.5,1.3l0.7,5.1l0.5,2l0.9,2.3l1.1,0.8l1.3-0.1l4-2.2
		l1.5-0.3l0.9,0.6l0.6,0.7l0.8,1.4l0.1,0.5l0.2,1l0.1,1.2l-0.2,1.3l-0.5,1.7l-0.1,0.8l0.3,1.1l0.7,0.4l0.9,0.2h2.9l3.1,2.4l1.5,2.8
		l1.4,4l9.8,1.7l2.9,1.6l1.1,1.1l0.9,0.4h0.9l1.2-0.4l2.8-1.4l0.5,0.2l0.4,0.5l0.4,0.9l0.3,1.3l0.1,1.2l0.2,0.8l0.7,1.9l1.3,2.6
		l4.1,3.5l-6.9,7.3l-2.2,1.2l-0.4-0.7l-0.4-1.2l-0.6-1l-1.5,0.2l-1.2,1.2l-1.8,2.5l-0.4,1.5l0.2,1.5l2.1,5l1.3,4.4l1.1,4.9l1,6.6
		l0.1,2.8l3.3,12.7v4.7l-1.3,5.5l0.2,1.8l0.4,2.4l1.1,2l4.3,5.5l0.3,1.5l-0.1,1.1l-0.8,1.9l-3.2,4.6l-5.7,7.6L819,395l-0.9,1.6
		l-0.4,1.7l-0.1,1.8l-0.5,2.9l0.1,1.1l0.6,0.8l1.5,1.2l0.5,0.7l0.2,0.4l0.1,2l0.1,0.7v0.1l-4.9,1.2l-0.7,0.4l-1.2,1.2l0.1,0.4
		l0.6,0.4l0.1,1.2l-0.9,5.4v0.5l-0.1,2.6l0.1,3l1.3,4.3l2.6,1.6l0.6,1.3l0.6,1.2l0.1,0.2l0.3,4l-2.3-2.8l-1.3-1l-2.3-0.4l-2.5-0.4
		l-8.1-4.1l-3.3-0.7l-3.3,0.3l-4.6,1.9l-3.5,1.4l-3.2,0.2l-9.1-1.4l-1.9-1.2l-0.4,2.7v2.2l-0.7,1.5l-0.6,0.5l-0.6,0.4l-1.6,0.5
		l-1.8-0.5h-2.5l-2.5,0.7l-1.9,1.4l-1.1,2.4l-0.1,0.4l-0.3,1.6l-0.5,1l-0.3,0.7l-2.2,1.8l-3.6,0.6l-2.7-1.7l-0.5-0.5l-2.1-1.8
		l-3.6-1.4l-6.6,0.4l-15.2,0.8l-3.8-0.4l-8-0.9l-0.1-0.1l-1-1.2l-7.4-8.6l-1.4-4.1l-0.3-5.8l-1.4-6.2l-1.8-4.2l-0.6-2.3L696,409
		l0.2-1l0.6-2.1l0.8-1.5l0.7-2.2l0.3-5.2l-9.4-14.4l-4.7-5.8l-1.8-1.4l-1.2-0.8l-1.8-0.3l-13.2,3.1l-14.7,1.2l-3.2-1.4l-7.8,0.6
		l-3.2-0.3l-12.2,4.3l-2.1-0.1l-1.1-0.2l-0.3-0.5l-1.2-1l-2-0.9l-8.5-2.7l-4.8-3.4l-3.1-1.4l-4.2-0.1l-3.5,0.7l-13,6.2l-1.9,1.4
		l-1,1.2l-0.5,0.9l-0.5,1.2l-1.8,3.1l-4.5,2.2l-7.3,5.7l-2.1,0.7l-2.2,0.2l-1.1-0.5l-1.7-1.2l-4.6-3.8l4.6-5.9l5.2-9.5l1.3-3.4
		l0.6-1.9l-0.2-3.5l0.2-2.2l1-1.6l3.5-3.4l2.3-3l0.3-1.8l-1-1.5l-3.5-2.5l-4-5.1l-0.9-1.6l-0.6-1.8l-0.3-1.5l-0.6-1.7l-2.6-4.1
		l-2-3.9l-1.5-1.1l-1.8,0.6l-1.8,1.2l-3.4,0.4l-2,0.8l-1.6,1.3l-1.7,0.6l-1.7-0.5l-2.1-1.4l-3.7-3.6l-3.2-6.5l-3.5-11.8l-1.1-6.3
		l0.1-1.3l0.9-3.3l0.9-2.6l11.1,2.2l1.1-0.6l1.5-0.4l0.3-0.7l3-2.6l0.5-0.5l0.4-0.8l0.5-1.9l-0.1-2.3l-0.6-2.9l-1.1-2.4l-0.9-1.5
		l-1.5-1.7l-1.3-1.7l-1-1.8l-0.4-1.9l-0.1-1.7l0.2-3.5l0.3-2.2l0.7-2.5l1.5-2l2-1.6l12.7-6.4l1.3-0.2l1.1,0.1l2.9,1.8l1.6,0.6
		l3.6,0.7l3.1,1.2l1.9,0.4l5.2-0.7l5.4,6.4l1.3,3.4l0.2,1.3l0.6,1.7h0.8l2.4-1.7l5.8-1.6l4.4-2.1l1.6-0.4l1.1,0.2l6.8,4.7l2.5,1.2
		l2.5,0.7h3.5l2.9-0.9l5.3-4.1l3-1.8l3.8-1.1l2-1l1.3-1.3l0.5-1.2l1.3-1.8l17.1-6.9L661.7,246.1L661.7,246.1z"/>
	<path id="AT9" class="st0" d="M874.3,153.5L874.3,153.5l0.4-0.8l0.8-1.3l2.2-0.4l1.3,1.1l0.6,1.5l1.3,1.4l0.3,1.3l0.5,2.3l0.9,0.9
		l0.3,0.7l0.2,0.4l-0.1,0.6l-0.9,3.7l-0.6,4.9l0.8,2.5l2.6,5.5l-8.3-1.6l-5.6,0.3l-1.7,0.5l-1,0.9l-0.4,0.6l-0.4,0.9l-0.6,0.7
		l-1.2,0.8H863l-1.1-0.3l-2.2-1l-1.6-1.1H855l-3.2,0.6l-7.3-0.6l-1.4-0.8l-0.5-1.2l-0.7-0.8l-1-1.7l1-5.1l-0.3-1.1l-0.5-1.2l-0.9-1
		l-1-1.6v-1.6l0.4-1.4l0.3-0.6l0.8-1.2l0.9-0.9l2.9,1.4l1.6-0.2l1.5-0.4l1-0.7l1.4-1.3l0.6-1l8-5.2l4.3-2l2-0.6l1-0.8l0.4-1.4
		l3.7,0.3l0.7,0.9l3.2,5.7L874.3,153.5L874.3,153.5z"/>
</g>
<g id="points">
	<rect id="_x30_" x="90" y="466.8" class="st0" width="0" height="0"/>
	<rect id="_x31_" x="544.6" y="282.6" class="st0" width="0" height="0"/>
	<rect id="_x32_" x="908.2" y="47.3" class="st0" width="0" height="0"/>
</g>
<g id="label_points">
	<rect id="AT3_00000181049690175534475890000012075010671540227458_" x="774.8" y="152.9" class="st0" width="0" height="0"/>
	<rect id="AT4_00000109025210418843240320000016002822817205555128_" x="562.1" y="181.2" class="st0" width="0" height="0"/>
	<rect id="AT1_00000008844344713198206190000001933344665290114984_" x="848.4" y="332.8" class="st0" width="0" height="0"/>
	<rect id="AT8_00000148643223885604431860000016340599219589519285_" x="84.1" y="336.2" class="st0" width="0" height="0"/>
	<rect id="AT7_00000054262223661808859170000002425675928163384960_" x="308" y="332.8" class="st0" width="0" height="0"/>
	<rect id="AT5_00000176747154211820543620000010207379108766768290_" x="489.8" y="317.5" class="st0" width="0" height="0"/>
	<rect id="AT2_00000098900196828516606730000017506266983419366834_" x="600" y="425.4" class="st0" width="0" height="0"/>
	<rect id="AT6_00000179607447356075290580000014415107462766775216_" x="747.1" y="343.6" class="st0" width="0" height="0"/>
	<rect id="AT9_00000003071218466988510300000010063920729141971364_" x="863" y="164.9" class="st0" width="0" height="0"/>
</g>
</svg>
